<?xml version="1.0"?><svg width="640" height="480" xmlns="http://www.w3.org/2000/svg">
 <metadata id="metadata6064">image/svg+xmltear dropMohamed Ibrahimtear drop</metadata>
 <g>
  <title>Layer 1</title>
  <g id="layer1">
   <path fill="#007cc2" fill-rule="evenodd" stroke="#000000" stroke-width="0" stroke-linejoin="round" stroke-miterlimit="4" id="path6075" d="m192.571426,9.362183c0,0 56.583786,35.544373 87.142868,64.285706c30.559052,28.741333 84.066864,91.677948 110,131.428589c25.933136,39.75061 62.09726,92.381714 64.285706,130c2.188446,37.618286 -5.635773,73.550171 -35.714294,100c-30.078522,26.449829 -120.493011,51.554016 -157.142853,34.285706c-36.649826,-17.268311 -46.485504,-59.22229 -50,-97.142822c-3.514465,-37.920593 30.757233,-105.404419 41.428574,-138.571472c10.671341,-33.167053 30.460403,-55.592377 28.571426,-82.857147c-1.888977,-27.264771 -29.225464,-63.138336 -42.857147,-84.285706c-13.631668,-21.147369 -45.714279,-57.142853 -45.714279,-57.142853z"/>
  </g>
 </g>
</svg>